<?xml version="1.0" encoding="UTF-8" standalone="no"?>
<!DOCTYPE svg PUBLIC "-//W3C//DTD SVG 1.1//EN" "http://www.w3.org/Graphics/SVG/1.1/DTD/svg11.dtd">
<svg version="1.1" xmlns="http://www.w3.org/2000/svg" xmlns:xlink="http://www.w3.org/1999/xlink" preserveAspectRatio="xMidYMid meet" viewBox="0 0 16 16" width="16" height="16"><defs><path d="M10.57 1.88L11.7 2.49L12.68 3.31L13.49 4.29L13.82 4.9L13.84 4.9L13.84 4.94L14.1 5.42L14.49 6.66L14.62 8L14.49 9.34L14.1 10.58L13.84 11.06L13.84 11.14L13.8 11.14L13.49 11.71L12.68 12.69L11.7 13.51L10.57 14.12L9.32 14.5L7.98 14.64L6.65 14.5L5.4 14.12L4.27 13.51L3.29 12.69L2.48 11.71L2.17 11.14L2.13 11.14L2.13 11.06L1.87 10.58L1.48 9.34L1.34 8L1.48 6.66L1.87 5.42L2.13 4.94L2.13 4.9L2.15 4.9L2.48 4.29L3.29 3.31L4.27 2.49L5.4 1.88L6.65 1.5L7.98 1.36L9.32 1.5L10.57 1.88ZM4.26 11.73L5.33 12.55L6.58 13.08L7.98 13.27L9.38 13.08L10.64 12.55L11.71 11.73L12.16 11.14L3.81 11.14L4.26 11.73ZM2.9 6.6L2.71 8L2.9 9.4L3.05 9.75L12.92 9.75L13.07 9.4L13.25 8L13.07 6.6L12.94 6.3L3.03 6.3L2.9 6.6ZM5.33 3.45L4.26 4.27L3.77 4.9L12.19 4.9L11.71 4.27L10.64 3.45L9.38 2.92L7.98 2.73L6.58 2.92L5.33 3.45Z" id="aIMYcShvV"></path></defs><g><g><g><use xlink:href="#aIMYcShvV" opacity="1" fill="#ffffff" fill-opacity="1"></use></g></g></g></svg>